<?xml version="1.0" encoding="UTF-8" standalone="no"?>
<!-- Created with Inkscape (http://www.inkscape.org/) -->

<svg
   version="1.1"
   id="svg10781"
   xml:space="preserve"
   width="253.3174"
   height="152.49181"
   xmlns:inkscape="http://www.inkscape.org/namespaces/inkscape"
   xmlns:sodipodi="http://sodipodi.sourceforge.net/DTD/sodipodi-0.dtd"
   xmlns:xlink="http://www.w3.org/1999/xlink"
   xmlns="http://www.w3.org/2000/svg"
   xmlns:svg="http://www.w3.org/2000/svg"><defs
     id="defs10785"><linearGradient
       inkscape:collect="always"
       xlink:href="#linearGradient1457"
       id="linearGradient891"
       gradientUnits="userSpaceOnUse"
       gradientTransform="translate(50.501239,179.12204)"
       x1="52.5387"
       y1="76.749519"
       x2="52.5387"
       y2="94.91674" /><linearGradient
       inkscape:collect="always"
       id="linearGradient1457"><stop
         style="stop-color:#fff600;stop-opacity:1;"
         offset="0"
         id="stop1453" /><stop
         style="stop-color:#ffffff;stop-opacity:1;"
         offset="0.23406723"
         id="stop12008" /><stop
         style="stop-color:#00e9ff;stop-opacity:1;"
         offset="0.46813446"
         id="stop1455" /></linearGradient></defs><sodipodi:namedview
     id="namedview10783"
     pagecolor="#ffffff"
     bordercolor="#666666"
     borderopacity="1.0"
     inkscape:showpageshadow="2"
     inkscape:pageopacity="0.0"
     inkscape:pagecheckerboard="0"
     inkscape:deskcolor="#d1d1d1" /><inkscape:clipboard
     min="325.38583,898.0409"
     max="578.70323,1050.5327"
     geom-min="325.38583,898.06387"
     geom-max="577.00244,1048.8319" /><g
     id="g10792"
     transform="matrix(3.7795276,0,0,3.7795276,-325.38583,-898.04091)"><rect
       style="fill:#000000;fill-opacity:1;fill-rule:evenodd;stroke:#000000;stroke-width:0.9;stroke-linecap:round;stroke-linejoin:round;stroke-dasharray:none;stroke-opacity:1;paint-order:markers stroke fill"
       id="rect484-2-7"
       width="63.542206"
       height="39.446789"
       x="89.123024"
       y="238.05666"
       ry="8.7024031" /><rect
       style="fill:url(#linearGradient891);fill-opacity:1;fill-rule:evenodd;stroke:none;stroke-width:0.9;stroke-linecap:round;stroke-linejoin:round;stroke-dasharray:none;stroke-opacity:1;paint-order:markers stroke fill"
       id="rect484-5"
       width="63.542206"
       height="39.446789"
       x="86.091667"
       y="237.61273"
       ry="8.7024031" /><path
       id="path1567-1"
       style="fill:#dcfeff;fill-opacity:1;stroke-width:0.0649999;stroke-linecap:round;stroke-linejoin:round;stroke-dashoffset:71.7505;paint-order:fill markers stroke"
       d="m 141.02832,264.12303 c -1e-5,4.24673 -25.73229,4.36702 -34.63796,4.36702 -8.905669,0 -30.524925,-6.75947 -6.579559,-8.29406 4.238039,-0.2716 15.760259,-9.10659 24.665929,-9.10658 8.90568,0 16.5516,8.78689 16.55159,13.03362 z"
       sodipodi:nodetypes="sssss" /><ellipse
       style="fill:#fffde3;fill-opacity:1;fill-rule:evenodd;stroke:none;stroke-width:0.0649999;stroke-linecap:round;stroke-linejoin:round;stroke-dashoffset:71.7505;stroke-opacity:1;paint-order:fill markers stroke"
       id="path9244"
       cx="138.54817"
       cy="250.75137"
       rx="8.0669165"
       ry="8.675045" /><path
       id="path1567"
       style="fill:#a1a1a1;stroke:#000000;stroke-width:0.9;stroke-linecap:round;stroke-linejoin:round;stroke-dasharray:none;stroke-dashoffset:71.7505;stroke-opacity:1;paint-order:fill markers stroke"
       d="m 139.40699,247.13427 c -2.14616,9.9e-4 -4.74733,2.30952 -5.52007,3.09025 -0.47562,0.48054 -0.9731,0.97424 -1.47071,1.47019 -2.29478,-1.24932 -4.88337,-2.06395 -7.59024,-2.06395 -8.90566,-1e-5 -20.42816,8.83482 -24.66619,9.10642 -23.945342,1.53459 -2.325703,8.29407 6.57996,8.29407 8.90566,0 34.63767,-0.11994 34.63768,-4.36666 0,-0.47827 -0.10198,-1.0162 -0.28681,-1.5906 0.50165,-0.31966 0.84974,-1.1185 1.10588,-3.1843 1.0477,-8.44992 -0.64334,-10.75641 -2.7895,-10.75542 z" /><path
       d="m 138.94142,250.47895 c 1.13087,-0.49995 2.24863,-0.95967 2.72076,0.55983"
       style="fill:none;stroke:#363636;stroke-width:0.5;stroke-linecap:butt;stroke-linejoin:miter;stroke-dasharray:none;stroke-opacity:1"
       id="path7243" /><path
       style="fill:none;stroke:#000000;stroke-width:0.45;stroke-linecap:butt;stroke-linejoin:miter;stroke-dasharray:none;stroke-opacity:1"
       d="m 135.18692,251.45464 c -0.987,1.1669 0.51605,2.93339 1.96579,1.27229 0.7313,-0.83792 0.77255,5.12315 3.12162,2.05442"
       id="path7231"
       sodipodi:nodetypes="csc" /><path
       style="fill:none;stroke:#282828;stroke-width:0.5;stroke-linecap:butt;stroke-linejoin:miter;stroke-dasharray:none;stroke-opacity:1"
       d="m 135.8992,249.77094 c 1.13088,-0.49995 2.24863,-0.95967 2.72076,0.55983"
       id="path7233"
       sodipodi:nodetypes="cc" /><rect
       style="fill:#f0f0f0;fill-opacity:1;stroke:none;stroke-width:0.0649999;stroke-linecap:round;stroke-linejoin:round;stroke-dashoffset:71.7505;stroke-opacity:1;paint-order:fill markers stroke"
       id="rect7377"
       width="2.9187119"
       height="1.0025185"
       x="206.76442"
       y="197.14766"
       ry="0.50125927"
       transform="rotate(17.652488)" /></g></svg>
